<svg width="18" height="16" viewBox="0 0 18 16" fill="none" xmlns="http://www.w3.org/2000/svg">
    <path d="M6.71526 15.3844C5.93687 15.3844 5.1357 15.3214 4.32971 15.195C2.91014 14.9723 1.47313 14.2298 1.0665 14.0074L0 13.4243L1.15466 13.0446C2.41686 12.6296 3.18466 12.3721 4.13512 11.9689C3.18343 11.508 2.44995 10.679 2.09688 9.60726L1.82826 8.7918L2.04854 8.82545C1.83966 8.61492 1.67473 8.40124 1.54688 8.20692C1.09218 7.51629 0.851441 6.6724 0.902664 5.94923L0.953201 5.23745L1.37933 5.40252C1.19957 5.06304 1.06966 4.7005 0.993302 4.32051C0.807221 3.39381 0.962952 2.4093 1.43193 1.54838L1.80313 0.866954L2.29958 1.46324C3.86966 3.34931 5.85832 4.46813 8.2186 4.79566C8.12219 4.13113 8.19443 3.4898 8.43352 2.91494C8.71188 2.2456 9.20709 1.67802 9.86517 1.27345C10.596 0.824244 11.4824 0.606578 12.3609 0.660548C13.2929 0.717814 14.1391 1.06704 14.8112 1.67115C15.1394 1.58587 15.3813 1.49482 15.7081 1.37178C15.9048 1.29775 16.1278 1.21371 16.4068 1.11758L17.4352 0.76327L16.7646 2.67846C16.8088 2.67475 16.8544 2.6716 16.9021 2.66954L18.0001 2.61982L17.3511 3.50683C17.3139 3.55764 17.3044 3.57206 17.2912 3.59197C17.2389 3.6708 17.1738 3.76885 16.283 4.9584C16.06 5.25627 15.9486 5.64422 15.9693 6.05099C16.0483 7.59677 15.8586 8.99533 15.4053 10.2077C14.9766 11.3546 14.3122 12.3387 13.4308 13.1326C12.3401 14.1148 10.9494 14.7873 9.29704 15.1312C8.48653 15.2998 7.61614 15.3844 6.71526 15.3844Z" fill="white"/>
</svg>
